<?xml version="1.0" standalone="no"?>
<svg style="background: #fff" xmlns="http://www.w3.org/2000/svg" xmlns:xlink="http://www.w3.org/1999/xlink" version="1.1" width="1587px" height="747px" viewBox="-0.5 -0.5 1587 747"><defs><style>* {margin: 0px; padding: 0px;}</style></defs><g><path d="M 697.33 61 L 697.33 110.33 L 697.33 152.63" fill="none" stroke="#000000" stroke-miterlimit="10" pointer-events="none"/><path d="M 697.33 157.88 L 693.83 150.88 L 697.33 152.63 L 700.83 150.88 Z" fill="#000000" stroke="#000000" stroke-miterlimit="10" pointer-events="none"/><ellipse cx="697.5" cy="30.5" rx="104.5" ry="30.500000000000004" fill="#ffffcc" stroke="#000000" pointer-events="none"/><g fill="#000000" font-family="Helvetica" text-anchor="middle" font-size="12px"><text x="696.17" y="33.17">👀开始——你看到了这道题！👀</text></g><path d="M 697.5 237 L 697.5 365.63" fill="none" stroke="#000000" stroke-miterlimit="10" pointer-events="none"/><path d="M 697.5 370.88 L 694 363.88 L 697.5 365.63 L 701 363.88 Z" fill="#000000" stroke="#000000" stroke-miterlimit="10" pointer-events="none"/><path d="M 529.5 198 L 455.87 198" fill="none" stroke="#000000" stroke-miterlimit="10" pointer-events="none"/><path d="M 450.62 198 L 457.62 194.5 L 455.87 198 L 457.62 201.5 Z" fill="#000000" stroke="#000000" stroke-miterlimit="10" pointer-events="none"/><path d="M 865.5 198 L 939.13 198" fill="none" stroke="#000000" stroke-miterlimit="10" pointer-events="none"/><path d="M 944.38 198 L 937.38 201.5 L 939.13 198 L 937.38 194.5 Z" fill="#000000" stroke="#000000" stroke-miterlimit="10" pointer-events="none"/><rect x="529.5" y="159" width="336" height="78" rx="5.46" ry="5.46" fill="#ff3333" stroke="#000000" pointer-events="none"/><g fill="#000000" font-family="Helvetica" text-anchor="middle" font-size="12px"><text x="696.17" y="200.67">🤔️认真审题，想一想图表📈表示啥🤔️</text></g><rect x="945.5" y="159" width="336" height="78" rx="5.46" ry="5.46" fill="#33ff33" stroke="#000000" pointer-events="none"/><g fill="#000000" font-family="Helvetica" text-anchor="middle" font-size="12px"><text x="1112.17" y="200.67">📅弄清楚到底每次变化的间隙是多少📅</text></g><path d="M 113.5 198.67 L 7.33 198.67 L 7.33 602 L 514 602 L 514 652.3" fill="none" stroke="#000000" stroke-miterlimit="10" pointer-events="none"/><path d="M 514 657.55 L 510.5 650.55 L 514 652.3 L 517.5 650.55 Z" fill="#000000" stroke="#000000" stroke-miterlimit="10" pointer-events="none"/><rect x="113.5" y="159" width="336" height="78" rx="5.46" ry="5.46" fill="#66b2ff" stroke="#000000" pointer-events="none"/><g fill="#000000" font-family="Helvetica" text-anchor="middle" font-size="12px"><text x="280.17" y="200.67">🤔️分析汉字，读懂题意🤔️</text></g><path d="M 529.5 411 L 455.87 411" fill="none" stroke="#000000" stroke-miterlimit="10" pointer-events="none"/><path d="M 450.62 411 L 457.62 407.5 L 455.87 411 L 457.62 414.5 Z" fill="#000000" stroke="#000000" stroke-miterlimit="10" pointer-events="none"/><path d="M 865.5 411 L 939.13 411" fill="none" stroke="#000000" stroke-miterlimit="10" pointer-events="none"/><path d="M 944.38 411 L 937.38 414.5 L 939.13 411 L 937.38 407.5 Z" fill="#000000" stroke="#000000" stroke-miterlimit="10" pointer-events="none"/><rect x="529.5" y="372" width="336" height="78" rx="5.46" ry="5.46" fill="#c9c928" stroke="#000000" pointer-events="none"/><g fill="#000000" font-family="Helvetica" text-anchor="middle" font-size="12px"><text x="696.17" y="413.67">🔢看数字的变化🔢</text></g><path d="M 945.5 410.33 L 795.67 410.33 L 795.67 560.63" fill="none" stroke="#000000" stroke-miterlimit="10" pointer-events="none"/><path d="M 795.67 565.88 L 792.17 558.88 L 795.67 560.63 L 799.17 558.88 Z" fill="#000000" stroke="#000000" stroke-miterlimit="10" pointer-events="none"/><rect x="945.5" y="372" width="336" height="78" rx="5.46" ry="5.46" fill="#696915" stroke="#000000" pointer-events="none"/><g fill="#000000" font-family="Helvetica" text-anchor="middle" font-size="12px"><text x="1112.17" y="413.67">🔢越来越小🔢</text></g><path d="M 282.33 450 L 282.33 572 L 504.63 572" fill="none" stroke="#000000" stroke-miterlimit="10" pointer-events="none"/><path d="M 509.88 572 L 502.88 575.5 L 504.63 572 L 502.88 568.5 Z" fill="#000000" stroke="#000000" stroke-miterlimit="10" pointer-events="none"/><rect x="113.5" y="372" width="336" height="78" rx="5.46" ry="5.46" fill="#ffff33" stroke="#000000" pointer-events="none"/><g fill="#000000" font-family="Helvetica" text-anchor="middle" font-size="12px"><text x="280.17" y="413.67">🔢越来越大🔢</text></g><rect x="511" y="572" width="365" height="173" rx="10.38" ry="10.38" fill="#ffffff" stroke="#000000" pointer-events="none"/><path d="M 562.1 572 L 562.1 745 M 824.9 572 L 824.9 745" fill="none" stroke="#000000" stroke-miterlimit="10" pointer-events="none"/><g fill="#000000" font-family="Helvetica" text-anchor="middle" font-size="21px"><text x="692.17" y="665.67">结合汉字和数字：什么变得怎么样</text></g><path d="M 1294 227 L 1577.33 227 L 1577.33 630.33 L 875.67 630.33 L 881.03 629.57" fill="none" stroke="#000000" stroke-miterlimit="10" pointer-events="none"/><path d="M 886.23 628.82 L 879.79 633.28 L 881.03 629.57 L 878.8 626.35 Z" fill="#000000" stroke="#000000" stroke-miterlimit="10" pointer-events="none"/></g></svg>